<?xml version="1.0" encoding="UTF-8"?>
<svg id="Layer_2" data-name="Layer 2" xmlns="http://www.w3.org/2000/svg" viewBox="0 0 1080 915.65">
  <defs>
    <style>
      .cls-1 {
        fill: #1a3b7c;
      }

      .cls-1, .cls-2, .cls-3 {
        stroke-width: 0px;
      }

      .cls-2 {
        fill: #3f62ba;
      }

      .cls-3 {
        fill: #fff;
      }
    </style>
  </defs>
  <g id="OBJECTS">
    <g>
      <g>
        <path class="cls-1" d="m49.86,823.09c-10.18,0-17.97,6.36-17.97,15.9,0,10.89,8.51,16.14,17.97,16.14s17.89-5.25,17.89-16.14c0-9.54-7.55-15.9-17.89-15.9Zm0-40.95c-10.18,0-17.97,6.36-17.97,15.9,0,10.89,8.51,16.14,17.97,16.14s17.89-5.25,17.89-16.14c0-9.54-7.55-15.9-17.89-15.9Z"/>
        <path class="cls-1" d="m468.87,843.21v32.6H138.45v-71.97h-7.63c-5.25,0-9.62.72-13.04,3.66-3.58,2.86-5.81,8.11-5.81,13.92v77.06h-58.29c-25.21,0-37.14-3.26-53.68-11.77l13.44-29.9c11.37,6.84,22.11,8.99,34.43,8.99h31.49v-40.4c0-20.44,5.25-34.35,17.26-43.82,9.22-7.08,20.99-10.34,37.14-10.34h37.3v71.97h209.07c-3.42-7.24-6.12-16.3-6.12-26.48,0-17.18,7.08-30.93,18.13-39.84,8.83-6.92,21.55-10.5,35.31-10.5,14.63,0,26.4,4.13,38.97,9.94l-10.89,30.78c-7.08-4.29-15.75-8.11-24.49-8.11-6.68,0-12.49,1.99-17.18,5.96-3.82,3.26-7.4,9.62-7.4,16.14,0,10.1,1.99,15.9,6.52,22.11h55.9Z"/>
        <path class="cls-1" d="m507.68,911.84l-4.71-32.42c10.69,4.34,17.21,6.52,26.45,6.52,12.32,0,18.66-2.53,20.84-10.14-35.87-.36-62.86-16.31-62.86-52.36s26.45-52.17,63.04-52.17h33.52v92.93c0,31.16-12.32,51.45-53.27,51.45-7.25,0-13.77-.72-23-3.81Zm35.33-68.66h8.33v-39.31h-7.25c-12.32,0-24.09,6.34-24.09,19.56,0,13.95,10.51,19.75,23.01,19.75Z"/>
        <path class="cls-1" d="m841.35,728.14c-9.22,0-16.3,5.81-16.3,14.71,0,9.94,7.79,14.79,16.3,14.79s16.38-4.85,16.38-14.79c0-8.91-6.92-14.71-16.38-14.71Zm-20.44-26.24c-8.19,0-14.16,5.09-14.16,12.33,0,8.67,6.92,12.8,14.16,12.8s14.15-4.14,14.15-12.8c0-7.24-5.96-12.33-14.15-12.33Zm-20.44,26.24c-9.3,0-16.3,5.81-16.3,14.71,0,9.94,7.79,14.79,16.3,14.79s16.3-4.85,16.3-14.79c0-8.91-6.92-14.71-16.3-14.71Z"/>
        <path class="cls-1" d="m922.94,875.57v.24h3.98c-1.35,0-2.7-.08-3.98-.24Z"/>
        <path class="cls-1" d="m1023.3,779.59c-30.46,0-55.83,25.21-55.83,57.1,0,2.15.24,4.29.4,6.52h-40.95c-8.75,0-15.59-1.67-20.83-5.25.72-5.09,1.03-10.58,1.03-16.7v-59.09h-32.6v63.06c0,12.72-4.85,20.12-17.34,20.12-11.29,0-19.09-5.96-19.4-23.94v-41.11h-32.6v41.11c0,15.27-8.91,21.79-23.94,21.79h-11.77v-62.9h-32.6v62.9h-80.8l-.16.56v-72.52h-32.6v95.11c0,11.29-5.25,16.7-13.6,16.7-4.37,0-7.24-.4-12.72-1.67l3.82,32.45c3.26.95,7.95,1.83,12.33,1.83,29.5,0,40-12.17,42.23-39.84h126.6c14,0,27.91-5.49,38.25-14.87,7.95,11.21,20.44,16.7,37.14,16.7,20.28,0,33.32-5.65,40.95-16.86,5.65,7.08,14.16,13.44,24.65,14.79,1.27.16,2.62.24,3.98.24h57.02c10.34,10.1,24.49,16.46,39.36,16.46,29.9,0,56.7-24.41,56.7-55.59s-25.53-57.1-56.7-57.1Zm.16,80.08c-12.88,0-23.38-10.18-23.38-23.38s9.78-24.1,23.38-24.1,23.94,10.34,23.94,24.1-10.89,23.38-23.94,23.38Z"/>
      </g>
      <g>
        <path class="cls-3" d="m363.11,583.04c-202.78-63.48-267.54-85.32-267.54-140.19l43.6-64.36,151.05,9.83c6.34,2.9,13.1,4.36,20.07,4.36s13.73-1.46,20.08-4.36l634.02-22.17,14.11,134.01c-68.77,45.85-239.81,104.04-402.03,171.04"/>
        <path class="cls-2" d="m861.35,547.77l-121.78,49.2-146.49,59.19c-.05.02-.11.04-.17.07l-.78.32c-.39.16-.79.26-1.19.41-1.16.44-2.32.86-3.51,1.22-.67.2-1.34.36-2.02.53-1.01.26-2.02.52-3.04.72-.79.15-1.58.27-2.37.39-.92.14-1.84.28-2.77.37-.86.08-1.71.12-2.56.16-.88.05-1.76.09-2.65.09h-.01c-1.5,0-2.99-.08-4.49-.21-.23-.02-.45-.03-.68-.04-1.3-.12-2.61-.33-3.91-.55-.42-.06-.84-.12-1.27-.2-.18-.04-.36-.09-.55-.13-.98-.2-1.96-.44-2.94-.71-.52-.13-1.05-.26-1.57-.42-1.19-.36-2.35-.78-3.51-1.22-.39-.15-.8-.25-1.19-.41l-405.22-163.72c-27.43-11.09-42.3-42.06-31.71-69.69,10.77-28.16,42.49-41.87,70.33-30.64l360.14,145.51,6.04,2.44c13.17,5.33,27.9,5.33,41.07,0l325.59-131.55,67.84-27.41c8.07-3.2,7.28-12.63.5-16.27l-375.43-169.28c-24.82-11.19-53.27-11.19-78.09,0l-392.62,177.04c-19.44,6.92-35.41,21.8-43.48,41.76-15.21,37.65,3.04,80.66,40.69,95.88l405.09,163.66c4.77,2.07,9.79,3.64,14.98,4.66.32.07.64.12.97.18,1.77.33,3.56.58,5.37.78.52.06,1.05.12,1.57.17,2.13.19,4.28.31,6.45.31h.01c9.46,0,18.74-1.81,27.57-5.38l371.09-149.87c17.99-7.27,21.09-13.76,21.09-29.99l-130.41,52.63Zm-289.34-20.49h.03s-.03,0-.03,0h0s0,0,0,0Zm-425.5-156.19c-.14.04-.29.08-.42.11.14-.03.28-.07.42-.11m12.51-2.15c-.42.04-.84.1-1.25.14.42-.04.83-.1,1.25-.14m-6.24.8c-.32.05-.63.12-.95.18.32-.06.63-.12.95-.18"/>
        <path class="cls-2" d="m571.98,635.28c-5.74,0-11.47-.84-17.15-2.51-.2-.06-.39-.13-.57-.2l-390.6-158.06c-3.19-1.28-4.72-4.91-3.43-8.1,1.28-3.19,4.92-4.72,8.1-3.43l390.31,157.95c8.96,2.58,17.72,2.58,26.76,0l376.86-151.96c3.18-1.3,6.82.26,8.09,3.44,1.28,3.19-.25,6.81-3.44,8.1l-377.15,152.07c-.19.07-.38.14-.57.2-5.71,1.67-11.46,2.51-17.19,2.51"/>
        <path class="cls-2" d="m571.98,591.93c-5.74,0-11.47-.83-17.15-2.51-.2-.06-.39-.13-.58-.2l-390.6-158.06c-3.19-1.29-4.72-4.91-3.43-8.1,1.28-3.19,4.92-4.72,8.1-3.44l390.31,157.95c8.97,2.58,17.73,2.59,26.75,0l376.87-151.96c3.18-1.3,6.81.26,8.09,3.44,1.29,3.18-.25,6.81-3.44,8.09l-377.16,152.08c-.19.07-.38.14-.57.2-5.71,1.68-11.46,2.51-17.19,2.51"/>
        <path class="cls-2" d="m544,2.86l-276.43,126.23c-6.95,3.17-6.95,13.05,0,16.23l276.43,126.23c8.35,3.82,17.95,3.82,26.3,0l276.43-126.23c6.95-3.17,6.95-13.05,0-16.23L570.3,2.86c-8.35-3.82-17.95-3.82-26.3,0"/>
        <path class="cls-3" d="m555.68,420.95c-121.57,0-213.24-41.37-213.24-96.23v-143.41l194.65,88.88c6.34,2.9,13.1,4.36,20.07,4.36s13.73-1.46,20.08-4.36l191.68-87.53v142.06c0,54.86-91.67,96.23-213.24,96.23"/>
        <path class="cls-2" d="m583.67,284.28c-8.39,3.83-17.3,5.77-26.52,5.77s-18.13-1.94-26.51-5.77l-172.71-78.86v119.29c0,44.58,88.53,80.73,197.74,80.73s197.75-36.14,197.75-80.73v-117.94l-169.74,77.51Z"/>
      </g>
    </g>
  </g>
</svg>